<svg width="16" height="15" viewBox="0 0 16 15" fill="none" xmlns="http://www.w3.org/2000/svg">
<path fill-rule="evenodd" clip-rule="evenodd" d="M7.98438 14.0625C11.8676 14.0625 15.0156 10.9145 15.0156 7.03125C15.0156 3.148 11.8676 0 7.98438 0C4.10112 0 0.953125 3.148 0.953125 7.03125C0.953125 10.9145 4.10112 14.0625 7.98438 14.0625Z" fill="#D5D5D6"/>
<path fill-rule="evenodd" clip-rule="evenodd" d="M7.98437 7.84253L12.0409 4.3269H3.92788L7.98437 7.84253ZM6.88871 7.45335L7.98437 8.35269L9.06287 7.45335L12.0409 10.006H3.92788L6.88871 7.45335ZM3.65745 9.73556V4.59734L6.63221 7.16645L3.65745 9.73556ZM12.3113 9.73556V4.59734L9.33654 7.16645L12.3113 9.73556Z" fill="#151624"/>
</svg>
