<svg width="14" height="14" viewBox="0 0 14 14" fill="none" xmlns="http://www.w3.org/2000/svg">
<path fill-rule="evenodd" clip-rule="evenodd" d="M6.99956 0C3.13416 0 0 3.2133 0 7.1772C0 10.3479 2.00513 13.038 4.78745 13.9874C5.13753 14.0529 5.24781 13.8402 5.24781 13.65C5.24781 13.4795 5.25131 13.003 5.24781 12.4041C3.30089 12.8379 2.89741 11.4588 2.89741 11.4588C2.57927 10.6296 2.12066 10.4089 2.12066 10.4089C1.48525 9.96382 2.16835 9.97234 2.16835 9.97234C2.87072 10.023 3.24094 10.7122 3.24094 10.7122C3.8654 11.8083 4.87891 11.4915 5.27757 11.3084C5.34146 10.8445 5.52263 10.5282 5.72262 10.3488C4.16823 10.1675 2.5342 9.55195 2.5342 6.80167C2.5342 6.01786 2.80683 5.37763 3.2545 4.87603C3.1823 4.69477 2.94161 3.9648 3.32321 2.9764C3.32321 2.9764 3.91092 2.78348 5.24781 3.71265C5.8062 3.55338 6.40529 3.47397 7.00044 3.47127C7.59515 3.47397 8.1938 3.55338 8.75306 3.71265C10.09 2.78393 10.6768 2.9764 10.6768 2.9764C11.0584 3.9648 10.8181 4.69477 10.7464 4.87603C11.194 5.37763 11.4658 6.01786 11.4658 6.80167C11.4658 9.55913 9.82915 10.1657 8.26951 10.3429C8.52069 10.565 8.74869 10.9957 8.74869 11.6651C8.74869 12.5625 8.74869 13.4158 8.74869 13.6518C8.74869 13.8438 8.86159 14.056 9.21693 13.9865C11.9966 13.0358 14 10.347 14 7.1772C14 3.2133 10.8658 0 6.99956 0Z" fill="#D5D5D6"/>
</svg>
