<?xml version="1.0" encoding="UTF-8"?>
<svg version="1.1" viewBox="0 0 2048 2048" width="159" height="159" xmlns="http://www.w3.org/2000/svg">
<path transform="translate(0)" d="m0 0h2048v2048h-2048z" fill="#010101"/>
<path transform="translate(0)" d="m0 0h981l-2 2-25 7-26 8-21 8-24 10-23 12-17 10-19 12-18 14-12 10-11 9-12 11-8 7-7 8-11 11-9 11-13 16-13 20-14 24-11 22-13 33-9 28-7 27-7 38-4 31-3 40-1 23v80l2 27 5 32 5 30-1 4-2 1-20 1-106 2-116 2-89 2-83 3-50 3 1 3 3 85 5 110 4 89 5 93 9 136 2 34-9-5-15-10-14-7-10-3h-15l-11 4-9 7-5 9-2 8 1 16 5 16 7 17v2l-16 2-11 4-8 7-6 10-3 7-1 13 3 12 8 16 8 12 8 11-1 8-7 15-2 7v8l4 13 8 15 14 20 6 9-1 7-1 3v10l4 11 9 17 11 14 10 11 8 7 19 14 26 14 4 5 2 5 5 33 4 52 4 70 1 37-2 5-10 8-10 7-14 10-24 16-23 16-14 9-51 34-20 14-19 14-5 5-3 6-1 4h21l59-3 65-5 54-6 25-2h84l27-2 27-4 30-5 45-5 77-6 60-3 35-1h39l40 2 64 4 24 1 44 1h39l31-1 52-4 67-6 48-3 88-5 81-9 14-1h41l109 7 28 1h48l53-2 61-4 32-2 27-1h111l61 2 26 1 51 1h18l21-1 21-3 9-4 4-4v-6l-4-6-8-7-20-12-17-10-39-20-16-8-25-13-23-14-19-12-17-11-18-12-2-3v-58l1-33 2-8 6-8 9-7 27-16 11-8 10-8 10-9 12-16 7-16 1-5v-14l2-7 8-13 9-16 8-17 3-12v-17l-4-12-9-18 7-11 7-9 7-16 1-3v-12l-5-14-7-11-5-4-13-5-22-1-1-1 1-8 5-16 1-7v-9l-3-14-6-10-9-8-12-5h-12l-13 4-15 9-12 11-13 12-2 1-1-6-1-111v-141l1-53 5-144 1-58v-101l-1-29h-14l-83 3-168 3-203 6h-35l-1-2 10-24 8-27 5-24 4-28 2-31-1-30-4-38-5-29-7-35-12-42-14-34-11-21-13-22-16-25-11-16-12-17-10-14-9-12-12-15-11-14-14-17-12-14-11-12-5-5v-2l-4-2-16-16-11-9-12-9-18-11-16-6-12-4v-1h1e3v2048h-2048z" fill="#FEFEFE"/>
<path transform="translate(1297,788)" d="m0 0h9l2 1 1 3 3 84 6 122 5 95 7 141 5 89 6 121 6 113v10l-2 1-20 1-72 2-49 2h-23l-1-4-8-192-2-52-2-50-2-14-4-9-3-2h-37l-101 5-46 2-80 3-37 2-19 3-3 1-3 12-1 8v29l2 59 1 55 1 103 1 37v19l-2 1-66 3-68 3h-13l-2-10-3-51-6-137-10-223-5-111-11-243v-12l3-2 64-2 50-1h52l1 1 1 24 2 70 4 93 3 47 3 13 2 3 5 1h26l96-4 114-4 39-2 20-3 8-4 1-2v-26l-8-174-1-22v-16l3-2 44-3 61-3z" fill="#FEFEFE"/>
<path transform="translate(1008,20)" d="m0 0h23l17 3 16 6 17 9 12 9 14 12 17 17 7 8 13 14 9 11 9 10 8 10 14 18 9 12 14 19 12 17 14 20 11 17 12 20 11 21 11 27 7 22 7 27 9 45 4 25 2 18 1 15v22l-3 31-7 36-9 33-8 24-5 9-1 1-12 1h-42l-1-5 8-21 6-24 5-30 1-10v-51l-3-18-6-20-10-21-10-15-12-14-13-12-16-12-18-12-19-12-18-11-25-14-23-12-23-11-19-8-24-9-16-4-10-2-17-1-16 3-20 7-23 11-27 14-24 14-14 8-11 7-28 19-13 11-13 12-11 11-12 16-10 17-7 19-5 20-2 20v28l4 30 8 37 6 20 8 24 4 11v4l-9 2-68 1-3-1-3-5-4-32-3-38-1-19-1-34v-21l1-36 3-42 4-31 6-35 6-25 7-24 7-20 8-20 13-26 15-24 11-16 10-13 9-11 24-26 8-7 12-11 17-13 11-8 19-12 18-10 23-12 24-10 25-9 29-8 24-5z" fill="#FEFEFE"/>
<path transform="translate(1796,1706)" d="m0 0 8 1 11 6 36 24 16 9 18 10 23 12 30 15 19 10 20 11 7 5-4 2h-35l-79-3-86-4-29-1h-59l-59 3-63 3-26 1h-106l-60-3-37-2h-48l-36 3-53 6-41 3-77 4-60 5-55 5-29 2-27 1h-63l-52-2-57-4-32-2h-55l-60 3-93 7-48 5-66 9-24 2-27 1h-60l-36 3-66 7-47 3h-22l5-6 18-13 17-12 14-10 16-11 18-13 15-10 19-13 18-13 13-9 11-2 56-2 192-5 75-3 45-1 122-2 40-1 33-2 48-4 35-2 29-1 317-1 42-2 42-3 61-5 52-3 59-2 116-2 146-5z" fill="#FEFEFE"/>
<path transform="translate(1138,360)" d="m0 0 8 2 13 8 16 13 13 13 13 17 9 16 6 15 4 16 2 18v31l-3 28-6 28-5 17-10 26-3 2-7 1-35 2-117 4-34 1h-27l-4-2v-7l5-21 4-25v-27l-3-7-1-1h-5l-4 4-8 28-7 30-5 14-7 11-3 3-8 2-14 1-63 2-47 1h-32l-5-5-7-18-6-25-7-30-6-40-1-11v-35l3-16 6-18 11-21 12-16 9-10 7-8 10-7 6-1 16 8 20 8 26 8 16 3 32 3 16 1h54l56-4 21-3 34-8 27-9 10-5z" fill="#FEFEFE"/>
<path transform="translate(1883,1292)" d="m0 0h11l10 3 9 5 5 5 4 6 1 10-3 10-6 10-8 11-7 9-9 10-11 12-11 11-8 7-15 14-15 12-18 13-12 7-11 4-6-12-3-10v-10l4-13 10-17 12-14 8-7 15-14 10-9 11-11 13-18 11-17 7-6z" fill="#FEFEFE"/>
<path transform="translate(128,1258)" d="m0 0 10 1 8 4 14 11 12 10 16 12 13 10 14 10 13 10 8 7 8 10 6 10 4 10 1 8-8 10-10 7-2 1h-11l-16-8-22-13-19-13-18-14-11-9-12-13-10-14-6-12-2-11 1-7 5-9 7-6z" fill="#FEFEFE"/>
<path transform="translate(1854,1217)" d="m0 0 9 1 8 4 6 9 1 5v11l-2 12-5 15-8 16-11 16-18 22-11 12-8 7-9 8-10 7-9 4h-9l-5-4-3-12v-20l3-16 7-18 12-22 7-11 11-14 14-14 13-10 13-7z" fill="#FEFEFE"/>
<path transform="translate(153,1179)" d="m0 0h9l10 3 13 7 11 8 10 9 16 16 13 17 7 12 6 15 1 5v15l-4 10-6 7-4 1-10-2-15-8-15-11-14-12-13-13-10-13-12-23-5-10-2-8v-11l3-8 5-4z" fill="#FEFEFE"/>
<path transform="translate(1903,1381)" d="m0 0 4 1 7 11 1 3v12l-2 9-10 21-10 14-8 10-9 10-12 11-18 13-21 11-19 8-7 2-5-1-6-12-1-5v-9l3-12 8-9 14-10 22-15 13-10 13-11 9-9 7-6 7-8 8-8 7-8z" fill="#FEFEFE"/>
<path transform="translate(1073 1e3)" d="m0 0h51l5 5v14l-5 3-10 1-124 5-101 5-26 2h-12l-3-9v-9l2-7 1-1 38-1 55-3z" fill="#FEFEFE"/>
<path transform="translate(129,1350)" d="m0 0 9 3 17 12 14 10 15 10 26 15 21 12 11 8 12 11 5 8 1 3v12l-4 4-5 2-16 1-21-5-16-6-22-12-12-9-11-10-9-11-10-15-7-13-2-8v-9z" fill="#FEFEFE"/>
<path transform="translate(1119,1270)" d="m0 0h28l2 4-1 9-3 4-19 2-58 3-132 5-63 4-10 1h-10l-3-8 1-10 2-3 30-2 82-3 95-3 41-2z" fill="#FEFEFE"/>
<path transform="translate(154,1444)" d="m0 0 7 3 22 14 20 8 33 11 13 9 4 7v12l-4 10-8 4h-9l-10-2-9-4-11-6-15-13-18-18-10-13-5-9-1-5v-7z" fill="#FEFEFE"/>
<path transform="translate(1091,476)" d="m0 0h11l8 3 4 5 2 6 1 14v11l-1 18-3 15-5 10-5 5-3 1h-7l-6-3-5-6-4-10-3-15v-28l3-14 4-7 6-4z" fill="#010101"/>
<path transform="translate(870,477)" d="m0 0h11l12 4 5 4 3 8 1 6v26l-3 17-5 13-4 7-4 2h-7l-8-6-4-5-4-10-2-13v-20l3-20 3-10z" fill="#010101"/>
<path transform="translate(807,408)" d="m0 0 10 2 31 13 15 7 47 19 19 9 11 7 7 8v5l-4 4-9-1-23-10-21-8-29-12-19-8-26-13-10-7-2-3-1-6 2-5z" fill="#010101"/>
<path transform="translate(1140,400)" d="m0 0 4 1 2 2v8l-3 6-22 12-24 12-19 10-24 13-19 11-6 3-8-1-4-5 1-5 7-8 20-13 18-11 25-13 16-8 18-8z" fill="#010101"/>
<path transform="translate(814,1607)" d="m0 0h21l5 5v7l-3 5-3 1-60 2-43 1h-42l-1-1v-14l12-2 42-2z" fill="#FEFEFE"/>
<path transform="translate(1319,1590)" d="m0 0h28l3 4v10l-5 1-43 2-28 1-48 1h-42l-3-3 1-10 2-2 7-1 98-2z" fill="#FEFEFE"/>
<path transform="translate(1886,1483)" d="m0 0h2l-2 4-3 9-3 8-12 14-12 11-13 10-14 10-15 9-7 2h-5l-2-6v-11l3-8 10-5 16-7 21-11 16-12 9-8 9-6z" fill="#FEFEFE"/>
<path transform="translate(951,282)" d="m0 0h6l1 1-1 7-6 10-12 12-7 8-5 5-15 14-15 15-8 6-7 1-1-4 11-14 8-8 9-11 14-15 13-14 7-8z" fill="#FEFEFE"/>
<path transform="translate(1e3 290)" d="m0 0 5 1 1 5-5 10-29 29-8 7-9 9-9 7-7 3-4-1 1-6 7-9 14-15 7-7 7-8 18-18z" fill="#FEFEFE"/>
<path transform="translate(1053,309)" d="m0 0 6 2 1 1v7l-4 7-7 8-16 12-13 10-9 6-11 5-8 1 2-7 17-17 11-9 16-15 13-10z" fill="#FEFEFE"/>
<path transform="translate(2e3 1479)" d="m0 0 8 1 11 6 8 7 13 10 9 7v18l-9-5-11-9-16-12-13-13-2-4 1-5z" fill="#010101"/>
<path transform="translate(1093,333)" d="m0 0 7 1 5 3-1 4-7 7-13 9-15 6-8 2h-5l1-4 7-8 13-10 14-9z" fill="#FEFEFE"/>
</svg>
