<svg width="14" height="14" viewBox="0 0 14 14" fill="none" xmlns="http://www.w3.org/2000/svg">
<rect width="14" height="14" fill="#1E1E1E"/>
<rect id="Fundo" x="-667" y="-2438" width="1347" height="2487" fill="#0E1018"/>
<g id="Footer" opacity="0.7">
<path id="Vector" fill-rule="evenodd" clip-rule="evenodd" d="M7 0C10.8634 0 14 3.1366 14 7C14 10.8634 10.8634 14 7 14C3.1366 14 0 10.8634 0 7C0 3.1366 3.1366 0 7 0ZM7 2.625C5.81183 2.625 5.66284 2.63003 5.19619 2.65133C4.73052 2.67258 4.41249 2.74654 4.13418 2.85469C3.8465 2.9665 3.60251 3.11609 3.35929 3.35932C3.11607 3.60254 2.96647 3.84653 2.85466 4.13421C2.74652 4.41249 2.67258 4.73052 2.6513 5.19619C2.63003 5.66284 2.625 5.81183 2.625 7C2.625 8.18817 2.63003 8.33716 2.6513 8.80381C2.67258 9.26948 2.74652 9.58751 2.85466 9.86579C2.96647 10.1535 3.11607 10.3975 3.35929 10.6407C3.60251 10.8839 3.8465 11.0335 4.13418 11.1453C4.41249 11.2535 4.73052 11.3274 5.19619 11.3487C5.66284 11.37 5.81183 11.375 7 11.375C8.18817 11.375 8.33716 11.37 8.80381 11.3487C9.26948 11.3274 9.58751 11.2535 9.86579 11.1453C10.1535 11.0335 10.3975 10.8839 10.6407 10.6407C10.8839 10.3975 11.0335 10.1535 11.1453 9.86579C11.2535 9.58751 11.3274 9.26948 11.3487 8.80381C11.37 8.33716 11.375 8.18817 11.375 7C11.375 5.81183 11.37 5.66284 11.3487 5.19619C11.3274 4.73052 11.2535 4.41249 11.1453 4.13421C11.0335 3.84653 10.8839 3.60254 10.6407 3.35932C10.3975 3.11609 10.1535 2.9665 9.86579 2.85469C9.58751 2.74654 9.26948 2.67258 8.80381 2.65133C8.33716 2.63003 8.18817 2.625 7 2.625ZM7 3.41329C8.16818 3.41329 8.30654 3.41775 8.76788 3.4388C9.19445 3.45827 9.42607 3.52953 9.58024 3.58944C9.78447 3.66879 9.93021 3.76362 10.0833 3.91672C10.2364 4.06979 10.3312 4.21556 10.4106 4.41976C10.4705 4.57393 10.5418 4.80555 10.5612 5.23212C10.5823 5.69346 10.5867 5.83182 10.5867 7C10.5867 8.16818 10.5823 8.30654 10.5612 8.76788C10.5418 9.19445 10.4705 9.42607 10.4106 9.58024C10.3312 9.78447 10.2364 9.93021 10.0833 10.0833C9.93021 10.2364 9.78447 10.3312 9.58024 10.4106C9.42607 10.4705 9.19445 10.5418 8.76788 10.5612C8.30662 10.5823 8.16826 10.5867 7 10.5867C5.83174 10.5867 5.69341 10.5823 5.23212 10.5612C4.80555 10.5418 4.57393 10.4705 4.41976 10.4106C4.21553 10.3312 4.06979 10.2364 3.91669 10.0833C3.76359 9.93021 3.66879 9.78447 3.58944 9.58024C3.52953 9.42607 3.45825 9.19445 3.43878 8.76788C3.41772 8.30654 3.41329 8.16818 3.41329 7C3.41329 5.83182 3.41772 5.69346 3.43878 5.23212C3.45825 4.80555 3.52953 4.57393 3.58944 4.41976C3.66879 4.21556 3.76359 4.06979 3.91669 3.91672C4.06979 3.76362 4.21553 3.66879 4.41976 3.58944C4.57393 3.52953 4.80555 3.45827 5.23212 3.4388C5.69346 3.41775 5.83182 3.41329 7 3.41329ZM7 4.75338C5.75922 4.75338 4.75338 5.75922 4.75338 7C4.75338 8.24078 5.75922 9.24662 7 9.24662C8.24078 9.24662 9.24662 8.24078 9.24662 7C9.24662 5.75922 8.24078 4.75338 7 4.75338ZM7 8.45832C6.19459 8.45832 5.54168 7.80541 5.54168 7C5.54168 6.19459 6.19459 5.54168 7 5.54168C7.80541 5.54168 8.45832 6.19459 8.45832 7C8.45832 7.80541 7.80541 8.45832 7 8.45832ZM9.8604 4.66462C9.8604 4.95458 9.62533 5.1896 9.33537 5.1896C9.04545 5.1896 8.8104 4.95458 8.8104 4.66462C8.8104 4.37467 9.04545 4.13962 9.33537 4.13962C9.62533 4.13962 9.8604 4.37467 9.8604 4.66462Z" fill="#D5D5D6"/>
</g>
</svg>
