<svg width="14" height="14" viewBox="0 0 14 14" fill="none" xmlns="http://www.w3.org/2000/svg">
<path fill-rule="evenodd" clip-rule="evenodd" d="M7 0C10.8634 0 14 3.1366 14 7C14 10.8634 10.8634 14 7 14C3.1366 14 0 10.8634 0 7C0 3.1366 3.1366 0 7 0ZM4.81149 10.934V5.46738H2.99411V10.934H4.81149ZM11.3636 10.934V7.79912C11.3636 6.11997 10.4671 5.33884 9.27155 5.33884C8.30755 5.33884 7.87574 5.86901 7.63396 6.24137V5.46738H5.81705C5.84114 5.98027 5.81705 10.934 5.81705 10.934H7.63394V7.88104C7.63394 7.71764 7.6457 7.55429 7.69385 7.4375C7.82496 7.11115 8.12416 6.77307 8.62613 6.77307C9.28331 6.77307 9.54661 7.27456 9.54661 8.00912V10.934H11.3636ZM3.91508 2.83145C3.29328 2.83145 2.88704 3.24023 2.88704 3.77604C2.88704 4.30054 3.28092 4.7206 3.89102 4.7206H3.90275C4.53644 4.7206 4.93087 4.30054 4.93087 3.77604C4.91911 3.24023 4.53646 2.83145 3.91508 2.83145Z" fill="#D5D5D6"/>
</svg>
