<svg width="174" height="23" viewBox="0 0 174 23" fill="none" xmlns="http://www.w3.org/2000/svg">
<path d="M13.024 1.2H14.776V18H13.024V1.2ZM2.512 18H0.736V1.2H2.512V18ZM13.192 10.248H2.32V8.688H13.192V10.248ZM27.7954 18V15.216L27.7234 14.76V10.104C27.7234 9.032 27.4194 8.208 26.8114 7.632C26.2194 7.056 25.3314 6.768 24.1474 6.768C23.3314 6.768 22.5554 6.904 21.8194 7.176C21.0834 7.448 20.4594 7.808 19.9474 8.256L19.1794 6.984C19.8194 6.44 20.5874 6.024 21.4834 5.736C22.3794 5.432 23.3234 5.28 24.3154 5.28C25.9474 5.28 27.2034 5.688 28.0834 6.504C28.9794 7.304 29.4274 8.528 29.4274 10.176V18H27.7954ZM23.4514 18.12C22.5074 18.12 21.6834 17.968 20.9794 17.664C20.2914 17.344 19.7634 16.912 19.3954 16.368C19.0274 15.808 18.8434 15.168 18.8434 14.448C18.8434 13.792 18.9954 13.2 19.2994 12.672C19.6194 12.128 20.1314 11.696 20.8354 11.376C21.5554 11.04 22.5154 10.872 23.7154 10.872H28.0594V12.144H23.7634C22.5474 12.144 21.6994 12.36 21.2194 12.792C20.7554 13.224 20.5234 13.76 20.5234 14.4C20.5234 15.12 20.8034 15.696 21.3634 16.128C21.9234 16.56 22.7074 16.776 23.7154 16.776C24.6754 16.776 25.4994 16.56 26.1874 16.128C26.8914 15.68 27.4034 15.04 27.7234 14.208L28.1074 15.384C27.7874 16.216 27.2274 16.88 26.4274 17.376C25.6434 17.872 24.6514 18.12 23.4514 18.12ZM39.2877 18.12C38.0397 18.12 36.9197 17.848 35.9277 17.304C34.9517 16.744 34.1837 15.984 33.6237 15.024C33.0637 14.048 32.7837 12.936 32.7837 11.688C32.7837 10.424 33.0637 9.312 33.6237 8.352C34.1837 7.392 34.9517 6.64 35.9277 6.096C36.9197 5.552 38.0397 5.28 39.2877 5.28C40.3597 5.28 41.3277 5.488 42.1917 5.904C43.0557 6.32 43.7357 6.944 44.2317 7.776L42.9597 8.64C42.5277 8 41.9917 7.528 41.3517 7.224C40.7117 6.92 40.0157 6.768 39.2637 6.768C38.3677 6.768 37.5597 6.976 36.8397 7.392C36.1197 7.792 35.5517 8.36 35.1357 9.096C34.7197 9.832 34.5117 10.696 34.5117 11.688C34.5117 12.68 34.7197 13.544 35.1357 14.28C35.5517 15.016 36.1197 15.592 36.8397 16.008C37.5597 16.408 38.3677 16.608 39.2637 16.608C40.0157 16.608 40.7117 16.456 41.3517 16.152C41.9917 15.848 42.5277 15.384 42.9597 14.76L44.2317 15.624C43.7357 16.44 43.0557 17.064 42.1917 17.496C41.3277 17.912 40.3597 18.12 39.2877 18.12ZM48.7356 14.736L48.7836 12.552L56.6316 5.4H58.7196L53.1756 10.704L52.2156 11.52L48.7356 14.736ZM47.3916 18V0.191999H49.0956V18H47.3916ZM57.1596 18L51.9036 11.448L53.0076 10.128L59.2476 18H57.1596ZM63.7229 18V1.92L64.4909 2.736H59.7629V1.2H65.4509V18H63.7229ZM77.0268 5.28C78.0508 5.28 78.9468 5.48 79.7148 5.88C80.4988 6.264 81.1068 6.856 81.5388 7.656C81.9868 8.456 82.2108 9.464 82.2108 10.68V18H80.5068V10.848C80.5068 9.52 80.1708 8.52 79.4988 7.848C78.8428 7.16 77.9148 6.816 76.7148 6.816C75.8188 6.816 75.0348 7 74.3628 7.368C73.7068 7.72 73.1948 8.24 72.8268 8.928C72.4748 9.6 72.2988 10.416 72.2988 11.376V18H70.5948V5.4H72.2268V8.856L71.9628 8.208C72.3628 7.296 73.0028 6.584 73.8828 6.072C74.7628 5.544 75.8108 5.28 77.0268 5.28ZM92.1895 22.776C91.0375 22.776 89.9335 22.608 88.8775 22.272C87.8215 21.936 86.9655 21.456 86.3095 20.832L87.1735 19.536C87.7655 20.064 88.4935 20.48 89.3575 20.784C90.2375 21.104 91.1655 21.264 92.1415 21.264C93.7415 21.264 94.9175 20.888 95.6695 20.136C96.4215 19.4 96.7975 18.248 96.7975 16.68V13.536L97.0375 11.376L96.8695 9.216V5.4H98.5015V16.464C98.5015 18.64 97.9655 20.232 96.8935 21.24C95.8375 22.264 94.2695 22.776 92.1895 22.776ZM91.8775 17.52C90.6775 17.52 89.5975 17.264 88.6375 16.752C87.6775 16.224 86.9175 15.496 86.3575 14.568C85.8135 13.64 85.5415 12.576 85.5415 11.376C85.5415 10.176 85.8135 9.12 86.3575 8.208C86.9175 7.28 87.6775 6.56 88.6375 6.048C89.5975 5.536 90.6775 5.28 91.8775 5.28C92.9975 5.28 94.0055 5.512 94.9015 5.976C95.7975 6.44 96.5095 7.128 97.0375 8.04C97.5655 8.952 97.8295 10.064 97.8295 11.376C97.8295 12.688 97.5655 13.8 97.0375 14.712C96.5095 15.624 95.7975 16.32 94.9015 16.8C94.0055 17.28 92.9975 17.52 91.8775 17.52ZM92.0455 16.008C92.9735 16.008 93.7975 15.816 94.5175 15.432C95.2375 15.032 95.8055 14.488 96.2215 13.8C96.6375 13.096 96.8455 12.288 96.8455 11.376C96.8455 10.464 96.6375 9.664 96.2215 8.976C95.8055 8.288 95.2375 7.752 94.5175 7.368C93.7975 6.968 92.9735 6.768 92.0455 6.768C91.1335 6.768 90.3095 6.968 89.5735 7.368C88.8535 7.752 88.2855 8.288 87.8695 8.976C87.4695 9.664 87.2695 10.464 87.2695 11.376C87.2695 12.288 87.4695 13.096 87.8695 13.8C88.2855 14.488 88.8535 15.032 89.5735 15.432C90.3095 15.816 91.1335 16.008 92.0455 16.008ZM109.14 18V1.2H117.348C119.46 1.2 121.044 1.6 122.1 2.4C123.172 3.2 123.708 4.256 123.708 5.568C123.708 6.448 123.492 7.216 123.06 7.872C122.628 8.512 122.036 9.008 121.284 9.36C120.532 9.712 119.668 9.888 118.692 9.888L119.148 8.904C120.204 8.904 121.14 9.08 121.956 9.432C122.772 9.768 123.404 10.272 123.852 10.944C124.316 11.616 124.548 12.44 124.548 13.416C124.548 14.856 123.98 15.984 122.844 16.8C121.708 17.6 120.036 18 117.828 18H109.14ZM113.004 15.072H117.54C118.548 15.072 119.308 14.912 119.82 14.592C120.348 14.256 120.612 13.728 120.612 13.008C120.612 12.304 120.348 11.784 119.82 11.448C119.308 11.096 118.548 10.92 117.54 10.92H112.716V8.088H116.868C117.812 8.088 118.532 7.928 119.028 7.608C119.54 7.272 119.796 6.768 119.796 6.096C119.796 5.44 119.54 4.952 119.028 4.632C118.532 4.296 117.812 4.128 116.868 4.128H113.004V15.072ZM127.492 18V1.2H131.38V14.832H139.804V18H127.492ZM147.722 18.288C146.346 18.288 145.114 17.952 144.026 17.28C142.938 16.592 142.082 15.6 141.458 14.304C140.834 13.008 140.522 11.44 140.522 9.6C140.522 7.76 140.834 6.192 141.458 4.896C142.082 3.6 142.938 2.616 144.026 1.944C145.114 1.256 146.346 0.912 147.722 0.912C149.114 0.912 150.346 1.256 151.418 1.944C152.506 2.616 153.362 3.6 153.986 4.896C154.61 6.192 154.922 7.76 154.922 9.6C154.922 11.44 154.61 13.008 153.986 14.304C153.362 15.6 152.506 16.592 151.418 17.28C150.346 17.952 149.114 18.288 147.722 18.288ZM147.722 15C148.378 15 148.946 14.816 149.426 14.448C149.922 14.08 150.306 13.496 150.578 12.696C150.866 11.896 151.01 10.864 151.01 9.6C151.01 8.336 150.866 7.304 150.578 6.504C150.306 5.704 149.922 5.12 149.426 4.752C148.946 4.384 148.378 4.2 147.722 4.2C147.082 4.2 146.514 4.384 146.018 4.752C145.538 5.12 145.154 5.704 144.866 6.504C144.594 7.304 144.458 8.336 144.458 9.6C144.458 10.864 144.594 11.896 144.866 12.696C145.154 13.496 145.538 14.08 146.018 14.448C146.514 14.816 147.082 15 147.722 15ZM165.979 18.288C164.651 18.288 163.427 18.08 162.307 17.664C161.203 17.232 160.235 16.624 159.403 15.84C158.587 15.056 157.947 14.136 157.483 13.08C157.035 12.024 156.811 10.864 156.811 9.6C156.811 8.336 157.035 7.176 157.483 6.12C157.947 5.064 158.595 4.144 159.427 3.36C160.259 2.576 161.235 1.976 162.355 1.56C163.475 1.128 164.707 0.912 166.051 0.912C167.539 0.912 168.875 1.16 170.059 1.656C171.259 2.152 172.267 2.872 173.083 3.816L170.587 6.12C169.979 5.48 169.315 5.008 168.595 4.704C167.875 4.384 167.091 4.224 166.243 4.224C165.427 4.224 164.683 4.352 164.011 4.608C163.339 4.864 162.755 5.232 162.259 5.712C161.779 6.192 161.403 6.76 161.131 7.416C160.875 8.072 160.747 8.8 160.747 9.6C160.747 10.384 160.875 11.104 161.131 11.76C161.403 12.416 161.779 12.992 162.259 13.488C162.755 13.968 163.331 14.336 163.987 14.592C164.659 14.848 165.395 14.976 166.195 14.976C166.963 14.976 167.707 14.856 168.427 14.616C169.163 14.36 169.875 13.936 170.563 13.344L172.771 16.152C171.859 16.84 170.795 17.368 169.579 17.736C168.379 18.104 167.179 18.288 165.979 18.288ZM169.219 15.648V9.336H172.771V16.152L169.219 15.648Z" fill="#D5D5D6"/>
</svg>
