<svg width="18" height="12" viewBox="0 0 18 12" fill="none" xmlns="http://www.w3.org/2000/svg">
<rect width="18" height="12" fill="#1E1E1E"/>
<rect id="Fundo" x="-898" y="-1476" width="1347" height="2487" fill="#0E1018"/>
<g id="Subscri&#195;&#167;&#195;&#163;o">
<g id="mail email e-mail letter" opacity="0.7">
<path id="Vector" d="M16.4062 3.9375C16.2322 3.9375 16.0653 4.00664 15.9422 4.12971C15.8191 4.25278 15.75 4.4197 15.75 4.59375V9.84375C15.75 10.0178 15.6809 10.1847 15.5578 10.3078C15.4347 10.4309 15.2678 10.5 15.0938 10.5H1.96875C1.7947 10.5 1.62778 10.4309 1.50471 10.3078C1.38164 10.1847 1.3125 10.0178 1.3125 9.84375V4.59375C1.3125 4.4197 1.24336 4.25278 1.12029 4.12971C0.997218 4.00664 0.830298 3.9375 0.65625 3.9375C0.482202 3.9375 0.315282 4.00664 0.192211 4.12971C0.0691404 4.25278 0 4.4197 0 4.59375V9.84375C0.000459512 10.3657 0.208182 10.8661 0.5775 11.235C0.946358 11.6043 1.44678 11.812 1.96875 11.8125H15.0938C15.6157 11.812 16.1161 11.6043 16.485 11.235C16.8543 10.8661 17.062 10.3657 17.0625 9.84375V4.59375C17.0625 4.4197 16.9934 4.25278 16.8703 4.12971C16.7472 4.00664 16.5803 3.9375 16.4062 3.9375Z" fill="#D5D5D6"/>
<path id="Vector_2" d="M8.1375 7.74375C8.25109 7.82895 8.38926 7.875 8.53125 7.875C8.67324 7.875 8.81141 7.82895 8.925 7.74375L16.6753 1.92937C16.7962 1.8382 16.8819 1.70802 16.9178 1.5609C16.9536 1.41379 16.9375 1.25879 16.8722 1.12219C16.7745 0.920273 16.6436 0.736162 16.485 0.5775C16.1161 0.208182 15.6157 0.000459512 15.0937 0H1.96875C1.44678 0.000459512 0.946358 0.208182 0.5775 0.5775C0.41892 0.736162 0.288046 0.920273 0.190312 1.12219C0.124961 1.25879 0.108861 1.41379 0.144743 1.5609C0.180625 1.70802 0.266281 1.8382 0.387187 1.92937L8.1375 7.74375ZM1.96875 1.3125H15.0937C15.1546 1.30291 15.2166 1.30291 15.2775 1.3125L8.53125 6.39844L1.785 1.3125C1.84587 1.30291 1.90787 1.30291 1.96875 1.3125Z" fill="#D5D5D6"/>
</g>
</g>
</svg>
