<svg width="14" height="14" viewBox="0 0 14 14" fill="none" xmlns="http://www.w3.org/2000/svg">
<path fill-rule="evenodd" clip-rule="evenodd" d="M7 0C10.8634 0 14 3.1366 14 7C14 10.8634 10.8634 14 7 14C3.1366 14 0 10.8634 0 7C0 3.1366 3.1366 0 7 0ZM10.323 3.68714C9.48503 2.84845 8.37063 2.38637 7.18334 2.38591C4.73695 2.38591 2.74589 4.3762 2.74493 6.82259C2.7446 7.6046 2.94897 8.36795 3.33736 9.04077L2.70769 11.34L5.06056 10.723C5.70883 11.0765 6.43872 11.2628 7.18156 11.2631H7.18339C9.62954 11.2631 11.6208 9.27254 11.6217 6.82612C11.6222 5.64055 11.161 4.52577 10.323 3.68714ZM7.18337 10.5137H7.18189C6.51993 10.5134 5.87068 10.3357 5.30428 9.99966L5.16955 9.91971L3.77336 10.2859L4.14602 8.925L4.0583 8.78549C3.68903 8.19834 3.49401 7.51967 3.49429 6.82287C3.49511 4.78953 5.15 3.13526 7.18484 3.13526C8.17018 3.13564 9.09639 3.51977 9.79289 4.21682C10.4894 4.91389 10.8728 5.84046 10.8724 6.82585C10.8715 8.85932 9.21668 10.5137 7.18337 10.5137ZM9.20689 7.75171C9.09598 7.69623 8.55075 7.42801 8.44905 7.39102C8.34742 7.35402 8.27351 7.33551 8.19957 7.4465C8.12563 7.55748 7.91309 7.80721 7.84839 7.88121C7.78373 7.95517 7.71903 7.96447 7.60812 7.90893C7.49722 7.85348 7.13989 7.73639 6.71631 7.35867C6.38662 7.06472 6.16405 6.70162 6.09935 6.59066C6.03468 6.47968 6.09246 6.41968 6.148 6.36439C6.19787 6.31474 6.25887 6.23492 6.31433 6.17017C6.36978 6.10542 6.38827 6.05918 6.42523 5.98522C6.4622 5.9112 6.44372 5.84648 6.41599 5.79097C6.38827 5.73549 6.16648 5.18979 6.07406 4.96781C5.98407 4.75163 5.89263 4.78089 5.82455 4.7775C5.75993 4.77427 5.68594 4.77359 5.612 4.77359C5.53807 4.77359 5.41795 4.80134 5.31625 4.91233C5.21462 5.02332 4.92814 5.29154 4.92814 5.83721C4.92814 6.38291 5.32552 6.91007 5.38098 6.98409C5.43643 7.05808 6.16298 8.17789 7.27546 8.6581C7.54004 8.77231 7.74662 8.84053 7.90768 8.89164C8.17335 8.976 8.41509 8.9641 8.6062 8.93555C8.81926 8.90373 9.26234 8.66734 9.35473 8.40839C9.44713 8.14942 9.44713 7.92745 9.41943 7.88121C9.3917 7.83497 9.31777 7.80721 9.20689 7.75171Z" fill="#D5D5D6"/>
</svg>
